# xmcd
#
# Track frame offsets: 
#        150
#        15490
#        34040
#        50766
#        68093
#        86662
#        103317
#        118712
#        136618
#        151651
#        165586
#        195071
#
# Disc length: 4440 seconds
#
# Revision: 1
# Processed by: cddbd v1.5.1PL0 Copyright (c) Steve Scherf et al.
# Submitted via: ExactAudioCopy v0.95a3
#
DISCID=8c11560c
DTITLE=Trace Adkins - Songs About Me
DYEAR=2005
DGENRE=Country
TTITLE0=Songs About Me
TTITLE1=Arlington
TTITLE2=Find Me A Preacher
TTITLE3=My Way Back
TTITLE4=I Wish It Was You
TTITLE5=Bring It On
TTITLE6=My Heaven
TTITLE7=Baby I'm Home
TTITLE8=Metropolis
TTITLE9=I Learned How To Love From You
TTITLE10=Honkey Tonk Badonkadonk
TTITLE11=Data
EXTD=YEAR: 2005
EXTT0=
EXTT1=
EXTT2=
EXTT3=
EXTT4=
EXTT5=
EXTT6=
EXTT7=
EXTT8=
EXTT9=
EXTT10=
EXTT11=
PLAYORDER=
